<svg viewBox="0 0 512 512" fill="none" xmlns="http://www.w3.org/2000/svg">
  <defs>
    <linearGradient id="lotusGrad" x1="0%" y1="0%" x2="100%" y2="100%">
      <stop offset="0%" stop-color="#8B5CF6"/>
      <stop offset="50%" stop-color="#A855F7"/>
      <stop offset="100%" stop-color="#EC4899"/>
    </linearGradient>
  </defs>
  <circle cx="256" cy="256" r="220" fill="url(#lotusGrad)"/>
  <g transform="translate(256, 366)">
    <path d="M0 0 C-30 -20 -100 -80 -120 -140 C-130 -180 -100 -200 -70 -180 C-40 -160 -10 -100 0 0Z" fill="white" opacity="0.5"/>
    <path d="M0 0 C30 -20 100 -80 120 -140 C130 -180 100 -200 70 -180 C40 -160 10 -100 0 0Z" fill="white" opacity="0.5"/>
    <path d="M0 0 C-20 -30 -60 -100 -70 -160 C-75 -200 -45 -210 -25 -190 C-5 -170 0 -100 0 0Z" fill="white" opacity="0.7"/>
    <path d="M0 0 C20 -30 60 -100 70 -160 C75 -200 45 -210 25 -190 C5 -170 0 -100 0 0Z" fill="white" opacity="0.7"/>
    <path d="M0 0 C-8 -40 -20 -120 -20 -180 C-20 -220 20 -220 20 -180 C20 -120 8 -40 0 0Z" fill="white" opacity="0.95"/>
    <circle cx="0" cy="-20" r="12" fill="white" opacity="0.95"/>
  </g>
</svg>
